<?xml version="1.0" encoding="UTF-8"?>
<svg width="500" height="500" viewBox="0 0 500 500" xmlns="http://www.w3.org/2000/svg">
  <defs>
    <radialGradient id="starGlow" cx="50%" cy="50%" r="50%" fx="50%" fy="50%">
      <stop offset="0%" stop-color="white" stop-opacity="1"/>
      <stop offset="100%" stop-color="white" stop-opacity="0"/>
    </radialGradient>
  </defs>

  <!-- Small stars -->
  <g fill="white">
    <circle cx="45" cy="40" r="1" />
    <circle cx="105" cy="30" r="1.3" />
    <circle cx="190" cy="90" r="1" />
    <circle cx="250" cy="40" r="1.2" />
    <circle cx="320" cy="110" r="1" />
    <circle cx="390" cy="50" r="1.1" />
    <circle cx="460" cy="90" r="1" />
    <circle cx="60" cy="150" r="1.3" />
    <circle cx="125" cy="190" r="1" />
    <circle cx="205" cy="170" r="1.2" />
    <circle cx="285" cy="150" r="1" />
    <circle cx="355" cy="180" r="1.3" />
    <circle cx="440" cy="150" r="1" />
    <circle cx="30" cy="230" r="1.2" />
    <circle cx="95" cy="250" r="1" />
    <circle cx="155" cy="240" r="1.1" />
    <circle cx="225" cy="270" r="1" />
    <circle cx="310" cy="235" r="1.2" />
    <circle cx="380" cy="270" r="1" />
    <circle cx="470" cy="240" r="1.1" />
    <circle cx="75" cy="320" r="1" />
    <circle cx="140" cy="340" r="1.2" />
    <circle cx="195" cy="310" r="1" />
    <circle cx="265" cy="330" r="1.3" />
    <circle cx="345" cy="315" r="1" />
    <circle cx="420" cy="335" r="1.2" />
    <circle cx="25" cy="390" r="1" />
    <circle cx="90" cy="410" r="1.3" />
    <circle cx="165" cy="385" r="1" />
    <circle cx="230" cy="410" r="1.2" />
    <circle cx="305" cy="395" r="1" />
    <circle cx="375" cy="410" r="1.1" />
    <circle cx="455" cy="390" r="1" />
    <circle cx="55" cy="460" r="1.2" />
    <circle cx="125" cy="480" r="1" />
    <circle cx="210" cy="455" r="1.1" />
    <circle cx="280" cy="475" r="1" />
    <circle cx="350" cy="450" r="1.3" />
    <circle cx="435" cy="470" r="1" />
  </g>

  <!-- Medium stars with glow -->
  <g>
    <circle cx="100" cy="80" r="1.5" fill="white" />
    <circle cx="100" cy="80" r="4" fill="url(#starGlow)" fill-opacity="0.5" />

    <circle cx="300" cy="60" r="1.7" fill="white" />
    <circle cx="300" cy="60" r="5" fill="url(#starGlow)" fill-opacity="0.6" />

    <circle cx="400" cy="150" r="1.6" fill="white" />
    <circle cx="400" cy="150" r="4" fill="url(#starGlow)" fill-opacity="0.5" />

    <circle cx="180" cy="200" r="1.8" fill="white" />
    <circle cx="180" cy="200" r="5" fill="url(#starGlow)" fill-opacity="0.6" />

    <circle cx="50" cy="300" r="1.6" fill="white" />
    <circle cx="50" cy="300" r="4" fill="url(#starGlow)" fill-opacity="0.5" />

    <circle cx="350" cy="250" r="1.7" fill="white" />
    <circle cx="350" cy="250" r="5" fill="url(#starGlow)" fill-opacity="0.6" />

    <circle cx="250" cy="350" r="1.6" fill="white" />
    <circle cx="250" cy="350" r="4" fill="url(#starGlow)" fill-opacity="0.5" />

    <circle cx="450" cy="350" r="1.8" fill="white" />
    <circle cx="450" cy="350" r="5" fill="url(#starGlow)" fill-opacity="0.6" />

    <circle cx="150" cy="450" r="1.7" fill="white" />
    <circle cx="150" cy="450" r="4" fill="url(#starGlow)" fill-opacity="0.5" />

    <circle cx="400" cy="420" r="1.6" fill="white" />
    <circle cx="400" cy="420" r="5" fill="url(#starGlow)" fill-opacity="0.6" />
  </g>

  <!-- Large bright stars -->
  <g>
    <circle cx="200" cy="50" r="2" fill="white" />
    <circle cx="200" cy="50" r="6" fill="url(#starGlow)" fill-opacity="0.7" />

    <circle cx="400" cy="200" r="2.2" fill="white" />
    <circle cx="400" cy="200" r="7" fill="url(#starGlow)" fill-opacity="0.8" />

    <circle cx="100" cy="350" r="2.1" fill="white" />
    <circle cx="100" cy="350" r="6" fill="url(#starGlow)" fill-opacity="0.7" />

    <circle cx="300" cy="400" r="2.3" fill="white" />
    <circle cx="300" cy="400" r="7" fill="url(#starGlow)" fill-opacity="0.8" />
  </g>
</svg>
